<svg xmlns="http://www.w3.org/2000/svg" width="170" height="41" fill="none"><path d="M48.614 8.603C46.377 3.884 41.815.617 36.674.231c-2.52-.235-5.12.192-7.391 1.336a13.712 13.712 0 0 0-4.024 3.058C22.906 1.957 19.581.21 15.992.03 8.448-.425 1.945 4.46.36 12.042c-.963 4.54.087 9.283 2.172 13.277 2.08 3.94 5.117 7.443 9.068 9.5 2.757 1.343 5.34-2.06 3.324-4.44a19.94 19.94 0 0 1-1.775-2.303 22.861 22.861 0 0 1-1.36-2.371c-1.136-2.328-1.984-4.948-2.152-7.529-.1-1.64.116-3.054.797-4.481.645-1.332 1.69-2.476 3.061-3.014 2.134-.81 4.36-.374 5.98 1.373 1.054 1.085 1.537 2.603 2.075 4.004.04.102.084.2.129.296 1.071 3.304 5.98 3.387 6.898-.37.028-.128.056-.258.086-.389l.015-.06.014-.065a7.723 7.723 0 0 1 1.99-3.707c1.101-1.12 2.504-1.797 4.04-1.647.86.05 1.83.283 2.528.662 3.92 2.127 3.512 7.714 1.831 11.396-1.181 2.578-3.072 4.736-5.168 6.6-.519.46-1.111.967-1.648 1.395-2.458 1.91-3.087 5.524-1.144 8.115 2.084 2.848 6.236 2.986 8.62.453.469-.463.921-.944 1.367-1.428 4.499-5.024 8.587-12.483 9.223-19.357a18.071 18.071 0 0 0-1.719-9.349h.002Z" fill="url(#a)"/><path d="M79.951 12.342c1.845 0 3.327.59 4.444 1.767 1.116 1.177 1.673 2.745 1.673 4.703v9.596H81.24v-9.189c0-.791-.2-1.417-.596-1.875-.396-.457-.971-.688-1.722-.688-.795 0-1.412.26-1.85.781-.441.52-.661 1.24-.661 2.156v8.815h-4.83v-9.189c0-.791-.199-1.417-.595-1.875-.397-.457-.972-.688-1.723-.688-.795 0-1.412.26-1.85.781-.44.52-.66 1.24-.66 2.156v8.815h-4.83V12.779h4.83v1.438c.88-1.251 2.318-1.875 4.313-1.875 1.868 0 3.273.689 4.218 2.064.987-1.375 2.544-2.064 4.668-2.064ZM103.002 26.454c-1.653 1.593-3.67 2.392-6.052 2.392-2.382 0-4.4-.797-6.052-2.392-1.653-1.593-2.48-3.547-2.48-5.86s.827-4.267 2.48-5.86c1.653-1.594 3.67-2.39 6.052-2.39 2.381 0 4.399.796 6.052 2.39 1.653 1.593 2.479 3.547 2.479 5.86s-.826 4.267-2.479 5.86ZM94.31 23.25c.707.688 1.588 1.03 2.64 1.03s1.93-.344 2.64-1.03c.708-.689 1.062-1.573 1.062-2.658s-.354-1.969-1.062-2.657c-.708-.689-1.588-1.031-2.64-1.031s-1.933.344-2.64 1.03c-.708.687-1.062 1.575-1.062 2.658 0 1.084.354 1.97 1.062 2.658ZM112.76 28.41h-5.131V12.694h4.874v3.788c.774-2.899 2.808-4.183 4.746-4.183.644 0 1.356.034 2.227.428l-1.258 4.941c-1.065-.395-1.839-.395-2.323-.395-1.936 0-3.131 1.12-3.131 5.731v5.406l-.004-.002ZM132.273 12.778h4.829v15.629h-4.829v-1.85c-.61 1.572-2.736 2.287-4.796 2.287s-3.938-.797-5.441-2.392c-1.503-1.594-2.254-3.547-2.254-5.86s.751-4.267 2.254-5.86c1.503-1.594 3.316-2.427 5.441-2.39 3.662.062 4.885 1.81 4.796 2.683v-2.247Zm-6.599 10.595c.707.689 1.63 1.031 2.769 1.031 1.139 0 2.06-.344 2.769-1.03.71-.687 1.063-1.615 1.063-2.782s-.355-2.095-1.063-2.782c-.707-.686-1.632-1.03-2.769-1.03-1.137 0-2.06.344-2.769 1.03-.708.689-1.063 1.615-1.063 2.782s.355 2.095 1.063 2.781ZM140.672 28.407V5.591h4.829v22.816h-4.829ZM153.59 10.576a2.833 2.833 0 0 1-2.044.828 2.831 2.831 0 0 1-2.044-.828c-.57-.553-.853-1.215-.853-1.985s.285-1.433.853-1.985a2.828 2.828 0 0 1 2.044-.828 2.83 2.83 0 0 1 2.044.828c.568.552.853 1.214.853 1.985 0 .77-.285 1.433-.853 1.985Zm-4.458 17.831V12.78h4.829v15.628h-4.829ZM162.08 17.342c0 .313.274.568.821.766.547.197 1.207.396 1.98.594a18.28 18.28 0 0 1 2.318.765c.772.313 1.433.828 1.98 1.546.547.718.821 1.62.821 2.703 0 1.688-.645 2.965-1.932 3.828-1.288.865-2.876 1.297-4.765 1.297-3.391 0-5.698-1.24-6.921-3.72l4.185-2.313c.43 1.23 1.34 1.843 2.736 1.843 1.158 0 1.738-.323 1.738-.97 0-.313-.274-.573-.821-.78a19.047 19.047 0 0 0-1.979-.61 16.82 16.82 0 0 1-2.319-.782 4.93 4.93 0 0 1-1.979-1.516c-.547-.688-.822-1.532-.822-2.532 0-1.625.607-2.886 1.819-3.782 1.213-.897 2.71-1.344 4.491-1.344 1.331 0 2.543.286 3.637.86a6.713 6.713 0 0 1 2.64 2.484l-4.12 2.156c-.515-.917-1.235-1.375-2.157-1.375-.923 0-1.353.292-1.353.875l.002.007Z" fill="#597196"/><defs><radialGradient id="a" cx="0" cy="0" r="1" gradientUnits="userSpaceOnUse" gradientTransform="matrix(-25.19635 -35.60453 54.10867 -38.29123 34.508 37.796)"><stop offset="0" stop-color="#09FFD0"/><stop offset="1" stop-color="#009EFF"/></radialGradient></defs></svg>