<svg xmlns="http://www.w3.org/2000/svg" xmlns:xlink="http://www.w3.org/1999/xlink" viewBox="0 0 203.135 258.546">
  <defs>
    <style>
      .cls-1 {
        isolation: isolate;
      }

      .cls-2, .cls-3 {
        opacity: 0.2;
      }

      .cls-2 {
        fill: url(#linear-gradient);
      }

      .cls-38, .cls-4 {
        opacity: 0;
      }

      .cls-39, .cls-5 {
        opacity: 0.091;
      }

      .cls-40, .cls-6 {
        opacity: 0.182;
      }

      .cls-41, .cls-7 {
        opacity: 0.273;
      }

      .cls-42, .cls-8 {
        opacity: 0.364;
      }

      .cls-43, .cls-9 {
        opacity: 0.455;
      }

      .cls-10, .cls-44 {
        opacity: 0.545;
      }

      .cls-11, .cls-45 {
        opacity: 0.636;
      }

      .cls-12, .cls-46 {
        opacity: 0.727;
      }

      .cls-13, .cls-47 {
        opacity: 0.818;
      }

      .cls-14, .cls-48 {
        opacity: 0.909;
      }

      .cls-15 {
        fill: url(#linear-gradient-2);
      }

      .cls-16 {
        fill: url(#linear-gradient-3);
      }

      .cls-17 {
        opacity: 0.818;
        fill: url(#linear-gradient-4);
      }

      .cls-17, .cls-21, .cls-24, .cls-32, .cls-37 {
        mix-blend-mode: multiply;
      }

      .cls-18, .cls-23 {
        opacity: 0.6;
        mix-blend-mode: screen;
      }

      .cls-18 {
        fill: url(#radial-gradient);
      }

      .cls-19 {
        fill: url(#linear-gradient-5);
      }

      .cls-20 {
        fill: url(#linear-gradient-6);
      }

      .cls-21, .cls-24, .cls-33 {
        fill: #bcbec0;
      }

      .cls-22 {
        fill: url(#linear-gradient-7);
      }

      .cls-23 {
        fill: url(#radial-gradient-2);
      }

      .cls-24 {
        opacity: 0.7;
      }

      .cls-25 {
        fill: url(#New_Gradient_Swatch_copy_26);
      }

      .cls-26 {
        fill: url(#linear-gradient-8);
      }

      .cls-27 {
        fill: url(#linear-gradient-9);
      }

      .cls-28 {
        fill: url(#linear-gradient-10);
      }

      .cls-29 {
        fill: url(#radial-gradient-3);
      }

      .cls-30 {
        fill: url(#linear-gradient-11);
      }

      .cls-31 {
        fill: url(#linear-gradient-12);
      }

      .cls-32 {
        opacity: 0.9;
      }

      .cls-34 {
        opacity: 0.8;
      }

      .cls-35 {
        fill: url(#New_Gradient_Swatch_copy_26-2);
      }

      .cls-36 {
        fill: #8969c3;
      }

      .cls-37 {
        opacity: 0.3;
      }

      .cls-38 {
        fill: url(#linear-gradient-13);
      }

      .cls-39 {
        fill: url(#linear-gradient-14);
      }

      .cls-40 {
        fill: url(#linear-gradient-15);
      }

      .cls-41 {
        fill: url(#linear-gradient-16);
      }

      .cls-42 {
        fill: url(#linear-gradient-17);
      }

      .cls-43 {
        fill: url(#linear-gradient-18);
      }

      .cls-44 {
        fill: url(#linear-gradient-19);
      }

      .cls-45 {
        fill: url(#linear-gradient-20);
      }

      .cls-46 {
        fill: url(#linear-gradient-21);
      }

      .cls-47 {
        fill: url(#linear-gradient-22);
      }

      .cls-48 {
        fill: url(#linear-gradient-23);
      }

      .cls-49 {
        fill: url(#linear-gradient-24);
      }

      .cls-50 {
        mix-blend-mode: color-dodge;
        fill: url(#radial-gradient-4);
      }

      .cls-51 {
        fill: #b086cc;
      }
    </style>
    <linearGradient id="linear-gradient" x1="7881.335" y1="235.594" x2="8004.228" y2="235.594" gradientTransform="matrix(-1, 0, 0, 1, 8039.971, 0)" gradientUnits="userSpaceOnUse">
      <stop offset="0.056" stop-color="#200041"/>
      <stop offset="0.258" stop-color="#210243"/>
      <stop offset="0.357" stop-color="#25084b"/>
      <stop offset="0.434" stop-color="#2c1358"/>
      <stop offset="0.47" stop-color="#311b61"/>
      <stop offset="0.482" stop-color="#351f65"/>
      <stop offset="0.495" stop-color="#422c73"/>
      <stop offset="0.509" stop-color="#584188"/>
      <stop offset="0.523" stop-color="#765fa7"/>
      <stop offset="0.53" stop-color="#8770b8"/>
      <stop offset="0.537" stop-color="#7e67ae"/>
      <stop offset="0.562" stop-color="#5c468d"/>
      <stop offset="0.586" stop-color="#442e75"/>
      <stop offset="0.608" stop-color="#362066"/>
      <stop offset="0.626" stop-color="#311b61"/>
      <stop offset="0.672" stop-color="#2a1155"/>
      <stop offset="0.749" stop-color="#230446"/>
      <stop offset="0.813" stop-color="#200041"/>
      <stop offset="1" stop-color="#200041"/>
    </linearGradient>
    <linearGradient id="linear-gradient-2" x1="7881.335" y1="216.853" x2="8004.228" y2="216.853" xlink:href="#linear-gradient"/>
    <linearGradient id="linear-gradient-3" x1="7914.22" y1="224.755" x2="7969.928" y2="193.938" gradientTransform="matrix(-1, 0, 0, 1, 8039.971, 0)" gradientUnits="userSpaceOnUse">
      <stop offset="0" stop-color="#311b61"/>
      <stop offset="0.203" stop-color="#290f52"/>
      <stop offset="0.495" stop-color="#200041"/>
      <stop offset="1" stop-color="#0f001f"/>
    </linearGradient>
    <linearGradient id="linear-gradient-4" x1="7943.764" y1="210.187" x2="7954.701" y2="191.851" gradientTransform="matrix(-1, 0, 0, 1, 8039.971, 0)" gradientUnits="userSpaceOnUse">
      <stop offset="0" stop-color="#fff"/>
      <stop offset="1"/>
    </linearGradient>
    <radialGradient id="radial-gradient" cx="7944.128" cy="235.104" r="43.722" gradientTransform="matrix(-1, 0, 0, 1, 8039.971, 0)" gradientUnits="userSpaceOnUse">
      <stop offset="0" stop-color="#af8afc"/>
      <stop offset="1" stop-color="#10054d"/>
    </radialGradient>
    <linearGradient id="linear-gradient-5" x1="8033.95" y1="246.398" x2="7845.886" y2="-13.835" xlink:href="#linear-gradient-3"/>
    <linearGradient id="linear-gradient-6" x1="7871.318" y1="12.083" x2="8031.322" y2="252.681" gradientTransform="matrix(-1, 0, 0, 1, 8039.971, 0)" gradientUnits="userSpaceOnUse">
      <stop offset="0.01" stop-color="#9f19ab"/>
      <stop offset="0.429" stop-color="#5f27bd"/>
      <stop offset="0.904" stop-color="#3d065f"/>
    </linearGradient>
    <linearGradient id="linear-gradient-7" x1="8073.909" y1="252.051" x2="7925.882" y2="15.523" xlink:href="#linear-gradient"/>
    <radialGradient id="radial-gradient-2" cx="8031.914" cy="117.354" r="25.197" xlink:href="#radial-gradient"/>
    <linearGradient id="New_Gradient_Swatch_copy_26" data-name="New Gradient Swatch copy 26" x1="196.175" y1="169.802" x2="163.229" y2="95.171" gradientTransform="matrix(-0.505, -0.863, -0.863, 0.505, 245.106, 219.449)" gradientUnits="userSpaceOnUse">
      <stop offset="0.03" stop-color="#7c1dc9"/>
      <stop offset="0.214" stop-color="#6e41d2"/>
      <stop offset="0.618" stop-color="#4c9be8"/>
      <stop offset="1" stop-color="#2af6ff"/>
    </linearGradient>
    <linearGradient id="linear-gradient-8" x1="-144.998" y1="1980.708" x2="-124.737" y2="1980.708" gradientTransform="matrix(-0.866, 0.5, 0, 1.155, -74.295, -2093.019)" gradientUnits="userSpaceOnUse">
      <stop offset="0.035" stop-color="#602213"/>
      <stop offset="0.571" stop-color="#6d310e"/>
      <stop offset="1" stop-color="#7a4108"/>
    </linearGradient>
    <linearGradient id="linear-gradient-9" x1="164.661" y1="146.252" x2="192.25" y2="146.252" gradientTransform="matrix(-1, 0, 0, 1, 220.702, 0)" gradientUnits="userSpaceOnUse">
      <stop offset="0.035" stop-color="#ffa98c"/>
      <stop offset="0.317" stop-color="#ffb892"/>
      <stop offset="0.86" stop-color="#fee1a3"/>
      <stop offset="1" stop-color="#feeca8"/>
    </linearGradient>
    <linearGradient id="linear-gradient-10" x1="-144.341" y1="1981.614" x2="-125.034" y2="1981.614" gradientTransform="matrix(-0.866, 0.5, 0, 1.155, -74.295, -2093.019)" xlink:href="#linear-gradient-9"/>
    <radialGradient id="radial-gradient-3" cx="178.606" cy="143.823" r="17.456" gradientTransform="matrix(-1, 0, 0, 1, 220.702, 0)" gradientUnits="userSpaceOnUse">
      <stop offset="0" stop-color="#bb9ad7"/>
      <stop offset="0.391" stop-color="#a783cc"/>
      <stop offset="0.652" stop-color="#9f79c8"/>
      <stop offset="0.988" stop-color="#9f79c8"/>
      <stop offset="1" stop-color="#9f79c8"/>
    </radialGradient>
    <linearGradient id="linear-gradient-11" x1="-138.596" y1="1975.946" x2="-141.382" y2="1971.462" xlink:href="#linear-gradient-8"/>
    <linearGradient id="linear-gradient-12" x1="-136.465" y1="1977.014" x2="-125.936" y2="1977.014" xlink:href="#linear-gradient-8"/>
    <linearGradient id="New_Gradient_Swatch_copy_26-2" x1="-296.499" y1="2422.972" x2="-511.385" y2="2334.673" gradientTransform="matrix(0.866, -0.5, 0, -1.155, 458.59, 2683.59)" xlink:href="#New_Gradient_Swatch_copy_26"/>
    <linearGradient id="linear-gradient-13" x1="187.101" y1="22.134" x2="263.971" y2="168.71" gradientTransform="matrix(1, 0, 0, -1, -111.767, 249.016)" xlink:href="#linear-gradient-6"/>
    <linearGradient id="linear-gradient-14" x1="186.929" y1="22.338" x2="263.923" y2="169.15" gradientTransform="matrix(1, 0, 0, -1, -111.767, 249.016)" xlink:href="#linear-gradient-6"/>
    <linearGradient id="linear-gradient-15" x1="186.758" y1="22.541" x2="263.875" y2="169.589" gradientTransform="matrix(1, 0, 0, -1, -111.767, 249.016)" xlink:href="#linear-gradient-6"/>
    <linearGradient id="linear-gradient-16" x1="186.588" y1="22.745" x2="263.828" y2="170.028" gradientTransform="matrix(1, 0, 0, -1, -111.767, 249.016)" xlink:href="#linear-gradient-6"/>
    <linearGradient id="linear-gradient-17" x1="186.417" y1="22.948" x2="263.782" y2="170.467" gradientTransform="matrix(1, 0, 0, -1, -111.767, 249.016)" xlink:href="#linear-gradient-6"/>
    <linearGradient id="linear-gradient-18" x1="186.248" y1="23.15" x2="263.736" y2="170.906" gradientTransform="matrix(1, 0, 0, -1, -111.767, 249.016)" xlink:href="#linear-gradient-6"/>
    <linearGradient id="linear-gradient-19" x1="186.079" y1="23.353" x2="263.691" y2="171.345" gradientTransform="matrix(1, 0, 0, -1, -111.767, 249.016)" xlink:href="#linear-gradient-6"/>
    <linearGradient id="linear-gradient-20" x1="185.91" y1="23.555" x2="263.646" y2="171.783" gradientTransform="matrix(1, 0, 0, -1, -111.767, 249.016)" xlink:href="#linear-gradient-6"/>
    <linearGradient id="linear-gradient-21" x1="185.742" y1="23.756" x2="263.602" y2="172.221" gradientTransform="matrix(1, 0, 0, -1, -111.767, 249.016)" xlink:href="#linear-gradient-6"/>
    <linearGradient id="linear-gradient-22" x1="185.574" y1="23.958" x2="263.558" y2="172.659" gradientTransform="matrix(1, 0, 0, -1, -111.767, 249.016)" xlink:href="#linear-gradient-6"/>
    <linearGradient id="linear-gradient-23" x1="185.407" y1="24.159" x2="263.515" y2="173.097" gradientTransform="matrix(1, 0, 0, -1, -111.767, 249.016)" xlink:href="#linear-gradient-6"/>
    <linearGradient id="linear-gradient-24" x1="185.24" y1="24.36" x2="263.472" y2="173.534" gradientTransform="matrix(1, 0, 0, -1, -111.767, 249.016)" xlink:href="#linear-gradient-6"/>
    <radialGradient id="radial-gradient-4" cx="-389.128" cy="2350.422" r="115.786" gradientTransform="matrix(0.866, -0.5, 0, -1.155, 458.59, 2683.59)" gradientUnits="userSpaceOnUse">
      <stop offset="0" stop-color="#f49587"/>
      <stop offset="0.116" stop-color="#bd7368"/>
      <stop offset="0.236" stop-color="#8b554d"/>
      <stop offset="0.359" stop-color="#603b35"/>
      <stop offset="0.483" stop-color="#3e2622"/>
      <stop offset="0.609" stop-color="#231513"/>
      <stop offset="0.735" stop-color="#0f0908"/>
      <stop offset="0.864" stop-color="#040202"/>
      <stop offset="1"/>
    </radialGradient>
  </defs>
  <g class="cls-1">
    <g id="Layer_2" data-name="Layer 2">
      <g id="Layer_1-2" data-name="Layer 1">
        <g>
          <g>
            <path class="cls-2" d="M46.8,214.689c0,1.65,1.2,3.389,3.551,4.748L84.367,251.9c4.3,2.484,10.813,2.754,14.539.6l61.884-35.941c1.8-1.04,2.614-2.457,2.5-3.922a1.743,1.743,0,0,1,.02.257c0,.043,0,4.632,0,4.675a4.345,4.345,0,0,1-2.515,3.579l-61.884,35.94c-3.726,2.152-10.236,1.882-14.539-.6L50.35,224.026c-2.388-1.379-3.594-3.15-3.559-4.821C46.8,218.922,46.75,215.842,46.8,214.689Z"/>
            <g class="cls-3">
              <path class="cls-4" d="M92.592,256.5a17.853,17.853,0,0,0,8.912-2.149l61.883-35.94a9.43,9.43,0,0,0,5.113-8.146c0-3.617-2.244-6.987-6.157-9.246l-54.309-20.891a21.943,21.943,0,0,0-10.822-2.751,17.86,17.86,0,0,0-8.912,2.148L46.709,203.893a9.432,9.432,0,0,0-5.113,8.145c0,3.617,2.245,6.987,6.157,9.246L81.77,253.75A21.943,21.943,0,0,0,92.592,256.5Z"/>
              <path class="cls-5" d="M162.107,201.429,107.8,180.538a21.465,21.465,0,0,0-10.773-2.676,20.349,20.349,0,0,0-4.7.6,17.385,17.385,0,0,0-4.121,1.666L48.042,203.66c-.038.021-1.167.687-1.2.712a8.634,8.634,0,0,0-4.455,8.1c.178,3.284,2.655,6.939,6.212,8.993l33.4,31.879a21.48,21.48,0,0,0,10.561,2.687,17.418,17.418,0,0,0,8.7-2.085L163.151,218a8.952,8.952,0,0,0,4.875-7.771C168.01,206.8,165.862,203.6,162.107,201.429Z"/>
              <path class="cls-6" d="M161.871,201.838l-54.31-20.891a21.011,21.011,0,0,0-10.724-2.6,20.121,20.121,0,0,0-4.653.674,19.867,19.867,0,0,0-4.072,1.712l-39.944,23.4c-.075.043-1.127.668-1.183.718a7.906,7.906,0,0,0-3.8,8.05c.326,2.941,3.065,6.89,6.266,8.738l32.788,31.293a21.02,21.02,0,0,0,10.3,2.624,16.986,16.986,0,0,0,8.488-2.022l61.884-35.94a8.47,8.47,0,0,0,4.637-7.4C167.521,206.959,165.468,203.914,161.871,201.838Z"/>
              <path class="cls-7" d="M161.634,202.247l-54.309-20.891a20.545,20.545,0,0,0-10.675-2.527,19.741,19.741,0,0,0-4.609.747,23.121,23.121,0,0,0-4.023,1.757L48.294,204.606c-.112.065-1.087.649-1.172.724-3.043,1.964-3.668,4.868-3.138,8,.438,2.594,3.475,6.84,6.321,8.484l32.173,30.706a20.54,20.54,0,0,0,10.041,2.56,16.544,16.544,0,0,0,8.276-1.958l61.884-35.94a7.991,7.991,0,0,0,4.4-7.022C167.031,207.114,165.073,204.232,161.634,202.247Z"/>
              <path class="cls-8" d="M161.4,202.656l-54.309-20.891a20.113,20.113,0,0,0-10.626-2.453,19.461,19.461,0,0,0-4.565.82,27.324,27.324,0,0,0-3.974,1.8l-39.5,23.143c-.15.087-1.048.63-1.161.729-2.975,1.994-3.872,5.053-2.48,7.956,0,2.3,3.885,6.792,6.375,8.23l31.559,30.12a20.08,20.08,0,0,0,9.781,2.5,16.1,16.1,0,0,0,8.064-1.895l61.884-35.94a7.512,7.512,0,0,0,4.161-6.647C166.542,207.269,164.679,204.55,161.4,202.656Z"/>
              <path class="cls-9" d="M161.162,203.065l-54.309-20.891A19.67,19.67,0,0,0,96.276,179.8a19.133,19.133,0,0,0-4.521.892,33.173,33.173,0,0,0-3.925,1.85L48.547,205.553c-.187.108-1.008.61-1.149.734-2.906,2.023-3.562,5.1-1.823,7.909,0,1.973,4.3,6.743,6.43,7.975L82.95,251.705a19.608,19.608,0,0,0,9.52,2.433,15.662,15.662,0,0,0,7.853-1.831l61.884-35.94c2.61-1.508,4-3.79,3.922-6.272C166.052,207.424,164.285,204.867,161.162,203.065Z"/>
              <path class="cls-10" d="M160.926,203.474l-54.309-20.891a19.244,19.244,0,0,0-10.528-2.3,18.792,18.792,0,0,0-4.477.964,41.585,41.585,0,0,0-3.876,1.9L48.674,206.026a13.011,13.011,0,0,0-1.139.74,5.17,5.17,0,0,0-1.164,7.862c0,1.644,4.706,6.694,6.485,7.721L83.186,251.3a19.152,19.152,0,0,0,9.26,2.37,15.231,15.231,0,0,0,7.641-1.768l61.883-35.94c2.483-1.434,3.776-3.578,3.685-5.9C165.563,207.579,163.891,205.185,160.926,203.474Z"/>
              <path class="cls-11" d="M160.69,203.883l-54.309-20.891A18.828,18.828,0,0,0,95.9,180.763a18.529,18.529,0,0,0-4.433,1.037c-.542.181-3.377,1.683-3.827,1.943L48.8,206.5a11.064,11.064,0,0,0-1.127.746c-2.769,2.081-2.942,5.208-.506,7.814,0,1.316,5.117,6.646,6.539,7.467l29.717,28.361a18.676,18.676,0,0,0,9,2.307,14.8,14.8,0,0,0,7.429-1.7l61.883-35.94c2.355-1.36,3.553-3.367,3.447-5.523C165.073,207.734,163.5,205.5,160.69,203.883Z"/>
              <path class="cls-12" d="M160.454,204.292,106.145,183.4a18.419,18.419,0,0,0-10.43-2.154,18.172,18.172,0,0,0-4.389,1.109c-.4.141-3.44,1.794-3.778,1.989L48.927,206.972a9.516,9.516,0,0,0-1.116.752c-2.7,2.11-2.632,5.26.152,7.767,0,.986,5.527,6.6,6.594,7.212l29.1,27.775a18.206,18.206,0,0,0,8.738,2.243,14.36,14.36,0,0,0,7.218-1.641L161.5,215.14c2.227-1.286,3.33-3.156,3.209-5.148C164.584,207.889,163.1,205.821,160.454,204.292Z"/>
              <path class="cls-13" d="M160.218,204.7,105.909,183.81a18,18,0,0,0-10.381-2.079,17.731,17.731,0,0,0-4.345,1.182c-.268.1-3.5,1.9-3.729,2.034l-38.4,22.5a8.548,8.548,0,0,0-1.1.757c-2.631,2.14-2.321,5.313.811,7.721,0,.657,5.937,6.547,6.648,6.958L83.9,250.069a17.741,17.741,0,0,0,8.478,2.18,13.919,13.919,0,0,0,7.006-1.578l61.883-35.94c2.1-1.212,3.107-2.945,2.971-4.774C164.094,208.044,162.709,206.138,160.218,204.7Z"/>
              <path class="cls-14" d="M159.982,205.11l-54.31-20.891a16,16,0,0,0-14.632-.75c-.134.05-3.567,2.016-3.68,2.081L49.18,207.918a7.549,7.549,0,0,0-1.094.763c-2.562,2.169-2.011,5.364,1.468,7.673a88.326,88.326,0,0,0,6.7,6.7l27.873,26.6a17.285,17.285,0,0,0,8.218,2.116,13.478,13.478,0,0,0,6.794-1.514l61.883-35.94c1.971-1.138,2.884-2.733,2.733-4.4C163.6,208.2,162.314,206.456,159.982,205.11Z"/>
              <path d="M98.907,249.854l61.883-35.941c3.727-2.152,3.259-5.91-1.044-8.394l-54.31-20.891c-4.3-2.485-10.812-2.755-14.539-.6L49.306,208.392c-3.726,2.151-3.259,5.91,1.044,8.394l34.017,32.465C88.67,251.735,95.18,252.005,98.907,249.854Z"/>
            </g>
            <path class="cls-15" d="M98.907,249.767l61.883-35.941a4.345,4.345,0,0,0,2.515-3.578c0-.043,0-4.632,0-4.675-.03-1.632-1.235,1.2-3.559-.141l-54.31-20.891c-4.3-2.484-10.812-2.754-14.539-.6L49.306,208.305c-1.244.718-2.146-2.33-2.468-1.361-.108.323-.04,4.6-.047,4.935-.035,1.671,1.171,3.442,3.559,4.82l34.017,32.465C88.67,251.649,95.18,251.919,98.907,249.767Z"/>
            <path class="cls-16" d="M98.907,245.179l61.883-35.941c3.727-2.152,3.259-5.91-1.044-8.394l-54.31-20.891c-4.3-2.485-10.812-2.755-14.539-.6L49.306,203.717c-3.726,2.151-3.259,5.91,1.044,8.394l34.017,32.465C88.67,247.06,95.18,247.33,98.907,245.179Z"/>
            <path class="cls-17" d="M49.306,203.717,90.9,179.35c3.727-2.152,10.236-1.882,14.539.6L132.8,190.478a6.849,6.849,0,0,1-.85.586L70.065,227a10.406,10.406,0,0,1-2.96,1.1L50.35,212.111C46.047,209.627,45.58,205.868,49.306,203.717Z"/>
            <path class="cls-18" d="M50.35,211.332,84.367,243.8c4.3,2.484,10.813,2.754,14.54.6l61.883-35.94a4.458,4.458,0,0,0,2.487-3.3c.194,1.522-.62,3-2.487,4.082l-61.883,35.94c-3.727,2.152-10.237,1.882-14.54-.6L50.35,212.111c-2.518-1.454-3.711-3.343-3.531-5.092C47.012,208.536,48.2,210.092,50.35,211.332Z"/>
          </g>
          <g>
            <path class="cls-19" d="M18.057,245.378,170.039,157.56c7.77-4.487,14.069-16.522,14.069-26.882V14.443c0-10.36-6.3-15.122-14.069-10.636L18.057,91.625c-7.771,4.486-14.07,16.521-14.07,26.882V234.742C3.987,245.1,10.286,249.864,18.057,245.378Z"/>
            <path class="cls-20" d="M16.245,237.286l149.841-86.568c6.252-3.974,10.12-11.915,10.12-20.04v-117a2.494,2.494,0,0,0-3.756-2.148l-.441.256-150,86.679c-7.444,4.291-10.12,11.915-10.12,20.041v116.63a2.693,2.693,0,0,0,4.027,2.337Z"/>
            <path class="cls-21" d="M11.889,118.507v116.63a2.693,2.693,0,0,0,4.027,2.337l.329-.188,149.841-86.568c6.253-3.974,10.12-11.915,10.12-20.04v-117a2.494,2.494,0,0,0-3.756-2.148l-.441.256-150,86.679C14.565,102.757,11.889,110.381,11.889,118.507Zm1.581,0c0-6.065,1.618-14.227,9.331-18.673l150.448-86.94a.893.893,0,0,1,.458-.129.919.919,0,0,1,.919.914v117c0,7.74-3.685,15.083-9.331,18.672L15.133,236.1a1.087,1.087,0,0,1-.547.15,1.117,1.117,0,0,1-1.116-1.114Z"/>
            <path class="cls-22" d="M14.069,89.507,166.052,1.689c3.074-1.775,5.918-2.1,8.232-1.209.3.114,4.217,2.2,4.494,2.351l.013.009c-2.4-1.165-5.438-.947-8.752.967L18.057,91.625c-7.771,4.486-14.07,16.521-14.07,26.882V234.742c0,6.465,2.454,10.749,6.187,11.967a2.335,2.335,0,0,1-1.232-.419c-.178-.1-4.436-2.5-4.605-2.624C1.664,241.794,0,237.949,0,232.623V116.388C0,106.028,6.3,93.993,14.069,89.507Z"/>
            <path class="cls-23" d="M17.381,91.287,169.364,3.469c3.186-1.84,6.115-2.1,8.474-1.083a10.387,10.387,0,0,0-6.786,1.59L19.069,91.794C11.3,96.28,5,108.315,5,118.676V234.911c0,6.111,2.2,10.253,5.6,11.719-4.34-.689-7.283-5.148-7.283-12.226V118.169C3.312,107.809,9.611,95.774,17.381,91.287Z"/>
            <path class="cls-24" d="M71.057,69.891h0L172.152,11.485l.329-.188a2.693,2.693,0,0,1,4.027,2.336v116.63c0,8.126-2.676,15.75-10.12,20.041L71.059,205.391h0Z"/>
          </g>
          <g>
            <ellipse class="cls-25" cx="41.66" cy="130.992" rx="28.726" ry="16.584" transform="translate(-92.451 100.847) rotate(-59.689)"/>
            <path class="cls-26" d="M33.727,136.523c0,10.384,17.547.254,17.547-10.131s-3.928-15.095-8.773-12.3S33.727,126.139,33.727,136.523Z"/>
            <path class="cls-27" d="M29.237,152.732c1.454-4.175,4.253-6.409,7.676-11.119l5.428-2.587,5.429-3.681c3.423.757,6.222-.241,7.676,2.255a5.9,5.9,0,0,1,.595,1.649c-3.685,6.342-8.767,11.882-14.381,15.124-5.043,2.911-9.65,3.457-13.208,2.029A17.113,17.113,0,0,1,29.237,152.732Z"/>
            <path class="cls-28" d="M34.915,129.7a6.78,6.78,0,0,1,.2-1.6c.756-7.773,3.385-11.418,7.263-13.657,3.943-2.276,6.816-1.5,7.323,5.843.03.222.052.5.067.838.668-.139,1.1.452.887,1.887a5.468,5.468,0,0,1-1.52,3.186,21.958,21.958,0,0,1-2.846,6.686c-.23.911-.1,1.718.437,2.024a4.66,4.66,0,0,0,1.043.438c-3,5.3-7.854,8.1-10.851,6.265q.513-.739.974-1.523a3.411,3.411,0,0,0,.47-2.723,4.973,4.973,0,0,1-2.544-2.852c-.086-.157-.179-.306-.254-.475-.81.215-1.408-.359-1.532-1.429A3.046,3.046,0,0,1,34.915,129.7Z"/>
            <path class="cls-29" d="M33.974,156.175c0-3.642-.888-6.407-2.308-7.916,1.436-1.958,3.232-3.873,5.247-6.646,3,1.837,7.854-.967,10.85-6.264l.007,0c2.034.45,3.846.284,5.288.6a26.5,26.5,0,0,0-2.287,10.536c0,.049.005.092.005.14a36.526,36.526,0,0,1-9.116,7.756,19.817,19.817,0,0,1-7.719,2.708C33.954,156.778,33.974,156.475,33.974,156.175Z"/>
            <path class="cls-30" d="M43.342,117.037c-1.737,4.57,2.059,7.151,4.845,6.608,1.655-3.226,4.024-.439,1.534-7.187-3.21-8.7-7.779-2.134-7.779-2.134Z"/>
            <path class="cls-31" d="M43.826,117.036c-.494,4.883-4.441,5.807-5.9,10.167a12.966,12.966,0,0,0-.4,7.554s-4.765-4.2-1.777-12.781S44.526,110.114,43.826,117.036Z"/>
          </g>
          <g class="cls-32">
            <polygon class="cls-33" points="20.853 173.865 62.34 149.602 62.34 153.184 20.853 177.447 20.853 173.865"/>
            <polygon class="cls-33" points="20.853 181.74 62.34 157.477 62.34 159.559 20.853 183.822 20.853 181.74"/>
            <polygon class="cls-33" points="20.853 185.74 62.34 161.477 62.34 163.559 20.853 187.822 20.853 185.74"/>
            <polygon class="cls-33" points="20.853 189.74 62.34 165.477 62.34 167.559 20.853 191.822 20.853 189.74"/>
          </g>
          <g>
            <g>
              <g>
                <g class="cls-34">
                  <polygon class="cls-35" points="203.135 44.277 77.39 116.604 77.39 162.331 203.135 90.004 203.135 44.277"/>
                </g>
                <g>
                  <g>
                    <g>
                      <polygon class="cls-36" points="114.362 161.044 119.741 157.863 119.741 160.222 114.362 163.404 114.362 161.044"/>
                      <polygon class="cls-36" points="121.429 156.888 130.111 151.889 130.111 154.249 121.429 159.248 121.429 156.888"/>
                      <polygon class="cls-36" points="104.332 166.952 112.674 162.018 112.674 164.378 104.332 169.312 104.332 166.952"/>
                      <polygon class="cls-36" points="131.832 153.312 131.832 153.256 131.798 153.275 131.798 150.915 140.174 146.018 140.174 148.378 131.832 153.312"/>
                      <polygon class="cls-36" points="141.862 145.044 147.241 141.863 147.241 144.222 141.862 147.404 141.862 145.044"/>
                      <polygon class="cls-36" points="159.298 137.275 159.298 134.915 161.675 133.58 161.675 135.939 159.298 137.275"/>
                      <polygon class="cls-36" points="148.929 140.888 157.611 135.889 157.611 138.249 148.929 143.248 148.929 140.888"/>
                    </g>
                    <polygon class="cls-36" points="123.425 169.114 85.406 191.389 85.406 187.807 123.425 165.532 123.425 169.114"/>
                    <path class="cls-36" d="M127.882,150.028l6.417-3.671V144l-6.417,3.672Zm-4.042,2.321L126.2,151v-2.359l-2.355,1.346Zm-7.686,4.51,6-3.536v-2.36l-6,3.537Zm-1.687-1.385-10.135,5.969V163.8l10.135-5.968Z"/>
                  </g>
                  <path class="cls-36" d="M101.416,163.03c0-5.056-3.572-7.092-7.978-4.548s-7.979,8.705-7.979,13.761,3.572,7.092,7.979,4.548S101.416,168.086,101.416,163.03Z"/>
                </g>
                <g>
                  <g>
                    <path class="cls-36" d="M134.175,62.6,131.8,63.934v2.36l2.377-1.336Zm-4.064,2.309-8.682,5v2.36l8.682-5Zm-10.37,5.973-5.379,3.182v2.36l5.379-3.182Zm-7.067,4.156-8.342,4.934v2.36l8.342-4.934Z"/>
                    <polygon class="cls-36" points="123.425 82.133 85.406 104.408 85.406 100.826 123.425 78.551 123.425 82.133"/>
                    <path class="cls-36" d="M127.882,63.047l6.417-3.671v-2.36l-6.417,3.671Zm-4.042,2.321,2.355-1.347V61.662l-2.355,1.346Zm-7.686,4.51,6-3.536v-2.36l-6,3.537Zm-1.687-1.385-10.135,5.969v2.359l10.135-5.968Z"/>
                  </g>
                  <path class="cls-36" d="M101.416,76.044c0-5.056-3.572-7.093-7.978-4.549s-7.979,8.7-7.979,13.761,3.572,7.093,7.979,4.549S101.416,81.1,101.416,76.044Z"/>
                </g>
              </g>
              <g>
                <g class="cls-37">
                  <path class="cls-38" d="M82.06,163.3c-1.749,1.01-3.168.2-3.168-1.806V125.1a6.983,6.983,0,0,1,3.168-5.464L190.423,57.2c1.75-1.01,3.869-.091,3.869,1.917V95.507c0,2.007-2.119,4.343-3.869,5.353Z"/>
                  <path class="cls-39" d="M81.967,163.018c-1.764,1.019-3.194.2-3.194-1.821v-36.49a7.037,7.037,0,0,1,3.194-5.509L190.416,56.71c1.764-1.018,3.832-.1,3.832,1.922v36.49c0,2.024-2.068,4.39-3.832,5.409Z"/>
                  <path class="cls-40" d="M81.875,162.738c-1.779,1.027-3.221.205-3.221-1.836V124.311a7.093,7.093,0,0,1,3.221-5.554L190.409,56.22c1.779-1.027,3.794-.114,3.794,1.927V94.738c0,2.041-2.015,4.437-3.794,5.464Z"/>
                  <path class="cls-41" d="M81.782,162.459c-1.793,1.035-3.247.206-3.247-1.851V123.915a7.157,7.157,0,0,1,3.247-5.6L190.4,55.73c1.793-1.036,3.757-.126,3.757,1.931V94.354c0,2.057-1.964,4.484-3.757,5.519Z"/>
                  <path class="cls-42" d="M81.689,162.179c-1.807,1.044-3.273.208-3.273-1.866V123.519a7.214,7.214,0,0,1,3.273-5.645L190.4,55.239c1.808-1.044,3.719-.138,3.719,1.937V93.969c0,2.074-1.911,4.531-3.719,5.575Z"/>
                  <path class="cls-43" d="M81.6,161.9c-1.822,1.052-3.3.21-3.3-1.881V123.123a7.268,7.268,0,0,1,3.3-5.69L190.388,54.749c1.822-1.052,3.682-.15,3.682,1.941V93.585c0,2.091-1.86,4.578-3.682,5.63Z"/>
                  <path class="cls-44" d="M81.5,161.619c-1.837,1.061-3.326.212-3.326-1.9v-37a7.329,7.329,0,0,1,3.326-5.736L190.381,54.258c1.837-1.06,3.645-.161,3.645,1.946v37c0,2.107-1.808,4.625-3.645,5.685Z"/>
                  <path class="cls-45" d="M81.411,161.34c-1.851,1.068-3.352.213-3.352-1.911v-37.1a7.386,7.386,0,0,1,3.352-5.781L190.374,53.768c1.852-1.069,3.607-.173,3.607,1.951v37.1a7.6,7.6,0,0,1-3.607,5.741Z"/>
                  <path class="cls-46" d="M81.318,161.06c-1.865,1.077-3.378.215-3.378-1.926v-37.2a7.444,7.444,0,0,1,3.378-5.826L190.367,53.277c1.866-1.077,3.57-.185,3.57,1.956v37.2a7.6,7.6,0,0,1-3.57,5.8Z"/>
                  <path class="cls-47" d="M81.226,160.78c-1.881,1.086-3.405.217-3.405-1.941v-37.3a7.5,7.5,0,0,1,3.405-5.872L190.36,52.787c1.881-1.086,3.532-.2,3.532,1.961v37.3A7.6,7.6,0,0,1,190.36,97.9Z"/>
                  <path class="cls-48" d="M81.133,160.5c-1.895,1.094-3.431.219-3.431-1.956v-37.4a7.559,7.559,0,0,1,3.431-5.917L190.353,52.3c1.895-1.094,3.5-.208,3.5,1.966v37.4a7.607,7.607,0,0,1-3.5,5.907Z"/>
                  <path class="cls-49" d="M81.04,160.221c-1.909,1.1-3.457.219-3.457-1.971v-37.5a7.616,7.616,0,0,1,3.457-5.962L190.347,51.806c1.909-1.1,3.456-.22,3.456,1.971v37.5a7.618,7.618,0,0,1-3.456,5.963Z"/>
                </g>
                <g class="cls-34">
                  <polygon class="cls-50" points="203.135 89.157 77.39 161.484 77.39 162.331 203.135 90.004 203.135 89.157"/>
                </g>
              </g>
            </g>
            <g>
              <g>
                <path class="cls-51" d="M134.175,106.421l-2.377,1.336v2.359l2.377-1.335Zm-4.064,2.31-8.682,5v2.36l8.682-5Zm-10.37,5.973-2.2,1.256v2.36l2.2-1.256Zm-3.891,2.23-11.518,6.86v2.359l11.518-6.859Z"/>
                <path class="cls-51" d="M175.082,82.38l-2.377,1.335v2.36l2.377-1.336Zm-4.065,2.309-14.682,8.624v2.36l14.682-8.624Zm-16.369,9.6-5.611,3.34v2.359l5.611-3.339Zm-7.3,4.314-11.518,6.859v2.36l11.518-6.859Z"/>
                <polygon class="cls-51" points="123.425 125.956 85.406 148.23 85.406 144.649 123.425 122.374 123.425 125.956"/>
                <path class="cls-51" d="M127.882,106.87,134.3,103.2v-2.36l-6.417,3.671Zm-4.042,2.32,2.355-1.346v-2.36l-2.355,1.346Zm-9.625,5.713,7.938-4.739v-2.359l-7.938,4.738Zm-1.687-1.385-8.2,4.767v2.359l8.2-4.767Z"/>
              </g>
              <path class="cls-51" d="M101.164,120.924c0-5.056-3.572-7.093-7.979-4.549s-7.978,8.7-7.978,13.761,3.572,7.093,7.978,4.549S101.164,125.98,101.164,120.924Z"/>
            </g>
          </g>
        </g>
      </g>
    </g>
  </g>
</svg>
