<?xml version="1.0" encoding="utf-8"?>
<!-- Generator: Adobe Illustrator 24.1.3, SVG Export Plug-In . SVG Version: 6.00 Build 0)  -->
<svg version="1.1" id="Layer_1" xmlns="http://www.w3.org/2000/svg" xmlns:xlink="http://www.w3.org/1999/xlink" x="0px" y="0px"
	 viewBox="0 0 642.6 797" style="enable-background:new 0 0 642.6 797;" xml:space="preserve">
<style type="text/css">
	.st0{opacity:0.3;}
	.st1{fill-opacity:0;}
	.st2{opacity:1.000000e-02;enable-background:new    ;}
	.st3{opacity:3.000000e-02;enable-background:new    ;}
	.st4{opacity:4.000000e-02;enable-background:new    ;}
	.st5{opacity:6.000000e-02;enable-background:new    ;}
	.st6{opacity:7.000000e-02;enable-background:new    ;}
	.st7{opacity:9.000000e-02;enable-background:new    ;}
	.st8{opacity:0.1;enable-background:new    ;}
	.st9{opacity:0.11;enable-background:new    ;}
	.st10{opacity:0.13;enable-background:new    ;}
	.st11{opacity:0.14;enable-background:new    ;}
	.st12{opacity:0.16;enable-background:new    ;}
	.st13{opacity:0.17;enable-background:new    ;}
	.st14{opacity:0.19;enable-background:new    ;}
	.st15{opacity:0.2;enable-background:new    ;}
	.st16{opacity:0.21;enable-background:new    ;}
	.st17{opacity:0.23;enable-background:new    ;}
	.st18{opacity:0.24;enable-background:new    ;}
	.st19{opacity:0.26;enable-background:new    ;}
	.st20{opacity:0.27;enable-background:new    ;}
	.st21{opacity:0.29;enable-background:new    ;}
	.st22{opacity:0.3;enable-background:new    ;}
	.st23{fill:url(#SVGID_1_);}
	.st24{fill:url(#SVGID_2_);}
	.st25{fill:url(#SVGID_3_);}
	.st26{fill:url(#SVGID_4_);}
	.st27{fill:url(#SVGID_5_);}
	.st28{fill:url(#SVGID_6_);}
	.st29{fill:url(#SVGID_7_);}
	.st30{fill:url(#SVGID_8_);}
	.st31{fill:url(#SVGID_9_);}
	.st32{fill:#BCBEC0;}
	.st33{fill:#D1D3D4;}
	.st34{fill:#603913;}
	.st35{fill:#9D9EB3;}
	.st36{fill:url(#SVGID_10_);}
	.st37{fill:url(#SVGID_11_);}
	.st38{fill:url(#SVGID_12_);}
	.st39{fill:url(#SVGID_13_);}
	.st40{fill:url(#SVGID_14_);}
	.st41{fill:url(#SVGID_15_);}
	.st42{fill:url(#SVGID_16_);}
	.st43{fill:url(#SVGID_17_);}
	.st44{fill:url(#SVGID_18_);}
	.st45{fill:#FFFFFF;}
	.st46{fill:url(#SVGID_19_);}
	.st47{fill:url(#SVGID_20_);}
	.st48{fill:url(#SVGID_21_);}
	.st49{fill:url(#SVGID_22_);}
	.st50{fill:url(#SVGID_23_);}
	.st51{fill:url(#SVGID_24_);}
	.st52{fill:url(#SVGID_25_);}
	.st53{fill:url(#SVGID_26_);}
	.st54{fill:url(#SVGID_27_);}
	.st55{fill:url(#SVGID_28_);}
	.st56{fill:url(#SVGID_29_);}
	.st57{fill:url(#SVGID_30_);}
	.st58{fill:url(#SVGID_31_);}
	.st59{fill:url(#SVGID_32_);}
	.st60{fill:url(#SVGID_33_);}
	.st61{fill:url(#SVGID_34_);}
	.st62{fill:url(#SVGID_35_);}
	.st63{fill:url(#SVGID_36_);}
	.st64{fill:url(#SVGID_37_);}
	.st65{fill:url(#SVGID_38_);}
	.st66{fill:url(#SVGID_39_);}
	.st67{fill:url(#SVGID_40_);}
</style>
<g id="Layer_2_1_">
	<g id="Layer_1-2">
		<g id="Layer_2-2">
			<g id="Layer_1-2-2">
				<g class="st0">
					<path class="st1" d="M39.3,698.8l20.1,11.9l43.7-1.9c22.4-1,43.7,8.1,56.1,23.9l12.8,16.3c7.9,10.1,21.6,15.7,35.8,14.9
						l24.1-1.5c16.8-1,33.4,3.5,46.3,12.6l12.6,8.9l51.8,12.1c13.8,3.2,28.6-0.4,38.2-9.4l101.4-95.3l101.4-95.3
						c10.8-10.1-0.3-25.9-16-22.8L306,624.7L44.4,676.3C31.9,678.8,28.8,692.5,39.3,698.8z"/>
					<path class="st2" d="M308.8,626.3l-253.9,50c-11.9,2.3-14.4,15.6-4.4,21.5l19.6,11.5l42.3-1.6c21.3-0.9,42.8,8,54.5,23.1
						l12.9,15.7c7.5,9.6,21.9,15.4,35.5,14.6l23.8-1.1c16-1,32.1,3,44.4,11.7l12.1,8.3l49.7,11.2c13.2,3.1,27.5-0.6,36.7-9.2
						l97.5-91.6l98.2-92.1c10.3-9.7,0.1-25-14.8-22.1l-127,25L308.8,626.3z"/>
					<path class="st3" d="M311.8,628L65.4,676.4c-11.3,2.2-13.1,15-3.6,20.6l19,11l41-1.3c20.3-0.9,41.8,8,53,22.3l13,15.2
						c7.1,9.1,22.2,15,35.1,14.3l23.4-0.8c15.2-0.9,30.9,2.6,42.5,10.8l11.6,7.8l47.6,10.3c12.5,2.9,26.5-0.8,35.1-9l93.6-87.8
						l95-88.9c9.8-9.2,0.6-24.2-13.7-21.4l-123.2,24.2L311.8,628z"/>
					<path class="st4" d="M314.6,629.6L75.9,676.4c-10.7,2.1-11.8,14.4-2.8,19.7l18.5,10.6l39.7-1c19.2-0.8,40.8,7.9,51.4,21.4
						l13,14.6c6.8,8.6,22.5,14.7,34.8,13.9l23.1-0.5c14.4-0.9,29.6,2.2,40.6,9.9l11.1,7.3l45.5,9.5c11.9,2.8,25.4-1.1,33.6-8.8
						l89.8-84.1l91.6-85.7c9.2-8.7,1-23.3-12.4-20.7L434,606.2L314.6,629.6z"/>
					<path class="st5" d="M317.5,631.3L86.4,676.5c-10.1,2-10.5,13.8-2,18.8l17.9,10.2l38.4-0.6c18.1-0.8,39.8,7.9,49.8,20.6
						l13.1,14c6.4,8.1,22.8,14.3,34.4,13.6l22.7-0.2c13.6-0.8,28.4,1.7,38.8,9.1l10.6,6.8l43.4,8.6c11.2,2.6,24.3-1.3,32-8.6
						l85.9-80.3l88.5-82.4c8.7-8.2,1.5-22.4-11.3-19.9l-115.6,22.6L317.5,631.3z"/>
					<path class="st6" d="M320.4,632.9L96.8,676.5c-9.5,1.9-9.2,13.2-1.2,17.9l17.4,9.7l37.1-0.3c17.1-0.8,38.9,7.8,48.3,19.8
						l13.2,13.5c6,7.7,23.1,14,34,13.3l22.4,0.1c12.8-0.8,27.1,1.3,36.9,8.2L315,765l41.3,7.7c10.5,2.5,23.2-1.5,30.5-8.3l82-76.6
						l85.2-79.3c4.6-4.1,5-11.2,0.9-15.8c-2.7-3.1-7-4.4-11-3.4l-111.7,21.8L320.4,632.9z"/>
					<path class="st7" d="M323.3,634.5l-215.9,42c-8.9,1.8-7.9,12.6-0.4,17l16.9,9.3h35.8c16-0.7,37.9,7.8,46.7,19l13.2,12.9
						c5.6,7.2,23.5,13.7,33.7,13l22,0.4c12-0.7,25.8,0.8,35,7.3l9.6,5.8l39.2,6.8c9.9,2.3,22.1-1.7,29-8.1l78.1-72.8l82-76.1
						c7.7-7.2,2.4-20.7-8.8-18.5l-108,21L323.3,634.5z"/>
					<path class="st8" d="M326.1,636.2l-208.4,40.4c-8.3,1.7-6.7,12,0.3,16.1l16.3,8.8l34.5,0.3c14.9-0.7,36.9,7.7,45.1,18.2
						l13.3,12.3c5.3,6.7,23.8,13.3,33.3,12.7l21.7,0.7c11.2-0.7,24.6,0.4,33.2,6.4l9.1,5.3l37.1,5.9c9.2,2.2,21-1.9,27.4-7.9
						l74.3-69.1l78.8-72.9c7.2-6.8,2.8-19.8-7.6-17.8L430.3,616L326.1,636.2z"/>
					<path class="st9" d="M329,637.8l-200.8,38.8c-7.7,1.5-5.4,11.3,1.1,15.2l15.7,8.4l33.2,0.7c13.9-0.6,35.9,7.7,43.6,17.4
						l13.4,11.7c4.9,6.2,24.1,13,32.9,12.4l21.4,1c10.4-0.6,23.3-0.1,31.3,5.6l8.6,4.8l35,5c8.6,2,20-2.1,25.9-7.7l70.4-65.4
						l75.5-69.7c6.7-6.3,3.3-19-6.4-17l-100.4,19.4L329,637.8z"/>
					<path class="st10" d="M331.9,639.5l-193.1,37.2c-7.1,1.4-4.1,10.7,1.9,14.3l15.2,7.9l31.9,1c12.8-0.6,35,7.6,42,16.6l13.5,11.2
						c4.5,5.7,24.4,12.6,32.5,12.1l21,1.3c9.6-0.6,22.1-0.5,29.4,4.7l8.1,4.3l32.9,4.2c7.9,1.8,18.9-2.3,24.3-7.5l66.5-61.6
						l72.3-66.5c6.2-5.8,3.7-18.1-5.2-16.3l-96.6,18.6L331.9,639.5z"/>
					<path class="st11" d="M334.8,641.1l-185.5,35.6c-6.6,1.3-2.8,10.1,2.7,13.4l14.6,7.5l30.6,1.3c11.7-0.5,34,7.5,40.5,15.8
						l13.6,10.6c4.1,5.3,24.7,12.3,32.2,11.8l20.7,1.6c8.8-0.5,20.8-1,27.6,3.8l7.6,3.8l30.7,3.3c7.2,1.7,17.8-2.6,22.8-7.3
						l62.6-57.9l69-63.3c5.7-5.3,4.2-17.2-4-15.6l-92.8,17.8L334.8,641.1z"/>
					<path class="st12" d="M337.7,642.8l-178,34c-6,1.2-1.5,9.5,3.5,12.5l14.1,7l29.2,1.6c10.7-0.5,33,7.5,38.9,15l13.6,10
						c3.8,4.8,25,11.9,31.8,11.5l20.3,1.9c8-0.5,19.6-1.4,25.7,2.9l7.1,3.3l28.6,2.4c6.6,1.5,16.7-2.8,21.3-7.1l58.8-54.1l65.8-60
						c5.1-4.8,4.7-16.4-2.8-14.9l-89,17L337.7,642.8z"/>
					<path class="st13" d="M340.6,644.4l-170.4,32.4c-5.4,1.1-0.2,8.9,4.3,11.6L188,695l27.9,1.9c9.6-0.4,32,7.4,37.3,14.2l13.7,9.5
						c3.4,4.3,25.3,11.5,31.4,11.2l20,2.2c7.2-0.4,18.3-1.8,23.8,2l6.6,2.8l26.5,1.5c5.9,1.4,15.6-3,19.7-6.8l54.9-50.4l62.6-56.8
						c4.6-4.3,5.1-15.5-1.6-14.2l-85.2,16.2L340.6,644.4z"/>
					<path class="st14" d="M343.5,646.1l-162.8,30.8c-4.8,0.9,1.1,8.3,5.1,10.7l13,6.1l26.6,2.3c8.5-0.4,31.1,7.4,35.8,13.4
						l13.8,8.9c3,3.8,25.6,11.2,31.1,10.9l19.6,2.6c6.4-0.4,17-2.3,22,1.2l6.1,2.2l24.4,0.7c5.3,1.2,14.5-3.2,18.2-6.6l51-46.7
						l59.3-53.6c4.1-3.8,5.6-14.6-0.4-13.5l-81.4,15.4L343.5,646.1z"/>
					<path class="st15" d="M346.3,647.7l-155.2,29.2c-4.2,0.8,2.4,7.7,5.9,9.8l12.5,5.7l25.3,2.6c7.5-0.3,30.1,7.3,34.2,12.6
						l13.9,8.3c2.6,3.3,26,10.8,30.7,10.6l19.3,2.9c5.6-0.3,15.8-2.8,20.1,0.3l5.6,1.7l22.3-0.2c4.6,1.1,13.5-3.4,16.6-6.4
						l47.1-42.9l56.1-50.4c3.6-3.4,6-13.8,0.8-12.7l-77.6,14.6L346.3,647.7z"/>
					<path class="st16" d="M349.2,649.4L201.6,677c-3.6,0.7,3.6,7.1,6.6,8.8l11.9,5.2l24,2.9c6.4-0.3,29.1,7.3,32.6,11.8l13.9,7.8
						c2.3,2.9,26.3,10.5,30.3,10.3l18.9,3.2c4.8-0.3,14.5-3.2,18.2-0.6l5.1,1.2l20.2-1.1c4,0.9,12.4-3.6,15.1-6.2l43.2-39.2
						l52.9-47.2c3.1-2.9,6.5-12.9,2-12L423,635.6L349.2,649.4z"/>
					<path class="st17" d="M352.1,651l-140,26c-3,0.6,4.9,6.5,7.4,7.9l11.4,4.8l22.7,3.3c5.3-0.2,28.1,7.2,31.1,11l14,7.2
						c1.9,2.4,26.6,10.2,30,10l18.6,3.5c4-0.2,13.3-3.6,16.4-1.5l4.7,0.7l18.1-2c3.3,0.8,11.3-3.8,13.6-6l39.4-35.4l49.6-44
						c2.6-2.4,6.9-12,3.2-11.3l-70,13L352.1,651z"/>
					<path class="st18" d="M355,652.7L222.6,677c-2.4,0.5,6.2,5.8,8.2,7l10.8,4.4L263,692c4.3-0.2,27.1,7.2,29.5,10.2l14.1,6.6
						c1.5,1.9,26.9,9.8,29.6,9.6l18.2,3.8c3.2-0.2,12-4.1,14.5-2.3l4.2,0.2l16-2.8c2.6,0.6,10.2-4,12-5.8l35.5-31.7l46.4-40.8
						c2-1.9,7.4-11.2,4.4-10.6l-66.2,12.1L355,652.7z"/>
					<path class="st19" d="M357.9,654.3l-124.8,22.8c-1.8,0.3,7.5,5.2,9,6.1l10.3,3.9l20.1,3.9c3.2-0.1,26.2,7.1,27.9,9.4l14.2,6
						c1.1,1.4,27.2,9.5,29.2,9.3l17.9,4.1c2.4-0.2,10.8-4.5,12.6-3.2l3.7-0.3l13.9-3.7c2,0.5,9.1-4.3,10.5-5.5l31.6-28l43.1-37.6
						c1.5-1.5,7.8-10.3,5.6-9.9L420.3,643L357.9,654.3z"/>
					<path class="st20" d="M360.8,656l-117.2,21.1c-1.2,0.2,8.8,4.6,9.8,5.2l9.7,3.5l18.8,4.2c2.1-0.1,25.2,7.1,26.4,8.6l14.2,5.4
						c0.8,1,27.5,9.1,28.9,9l17.5,4.4c1.6-0.1,9.5-5,10.7-4.1l3.2-0.8l11.8-4.6c1.3,0.3,8-4.5,8.9-5.3l27.7-24.2l39.9-34.3
						c1-1,8.3-9.4,6.8-9.1l-58.6,10.6L360.8,656z"/>
					<path class="st21" d="M363.6,657.6L254,677.2c-0.6,0.1,10.1,4,10.6,4.3l9.2,3l17.4,4.5c1.1,0,24.2,7,24.8,7.8l14.3,4.9
						c0.4,0.5,27.8,8.8,28.5,8.7l17.2,4.7c0.8,0,8.3-5.4,8.9-5l2.7-1.3l9.7-5.5c0.7,0.2,6.9-4.7,7.4-5.1l23.9-20.5l36.7-31.2
						c0.5-0.5,8.7-8.6,8-8.4l-54.8,9.8L363.6,657.6z"/>
					<polygon class="st22" points="264.5,677.2 323.9,695 383.3,712.7 425.9,677 468.5,641.3 417.5,650.3 366.5,659.3 					"/>
				</g>
				
					<linearGradient id="SVGID_1_" gradientUnits="userSpaceOnUse" x1="448.4266" y1="707.6491" x2="373.3466" y2="443.4591" gradientTransform="matrix(1 0 0 1 0 -377.888)">
					<stop  offset="0" style="stop-color:#D4D1D8"/>
					<stop  offset="1" style="stop-color:#FFFFFF"/>
				</linearGradient>
				<polygon class="st23" points="642.6,0 134.6,238.7 182.8,394 				"/>
				
					<linearGradient id="SVGID_2_" gradientUnits="userSpaceOnUse" x1="522.9172" y1="817.3089" x2="258.5022" y2="235.526" gradientTransform="matrix(1 0 0 1 0 -377.888)">
					<stop  offset="0" style="stop-color:#311B61"/>
					<stop  offset="0.203" style="stop-color:#290F52"/>
					<stop  offset="0.495" style="stop-color:#200041"/>
					<stop  offset="1" style="stop-color:#0F001F"/>
				</linearGradient>
				<polygon class="st24" points="642.6,0 134.6,238.7 182.8,394 				"/>
				
					<linearGradient id="SVGID_3_" gradientUnits="userSpaceOnUse" x1="130.642" y1="166.895" x2="504.1591" y2="774.306" gradientTransform="matrix(1 0 0 1 0 -377.888)">
					<stop  offset="1.000000e-02" style="stop-color:#9F19AB"/>
					<stop  offset="0.429" style="stop-color:#5F27BD"/>
					<stop  offset="0.904" style="stop-color:#3D065F"/>
				</linearGradient>
				<polygon class="st25" points="642.6,0 134.6,238.7 50,244.5 0,198.1 				"/>
				
					<linearGradient id="SVGID_4_" gradientUnits="userSpaceOnUse" x1="196.33" y1="604.6977" x2="413.24" y2="574.7977" gradientTransform="matrix(1 0 0 1 0 -377.888)">
					<stop  offset="0" style="stop-color:#D4D1D8"/>
					<stop  offset="1" style="stop-color:#FFFFFF"/>
				</linearGradient>
				<polygon class="st26" points="642.6,0 231.1,294.8 182.8,394 				"/>
				
					<linearGradient id="SVGID_5_" gradientUnits="userSpaceOnUse" x1="402.5495" y1="788.408" x2="408.2395" y2="669.058" gradientTransform="matrix(1 0 0 1 0 -377.888)">
					<stop  offset="1.000000e-02" style="stop-color:#9F19AB"/>
					<stop  offset="0.429" style="stop-color:#5F27BD"/>
					<stop  offset="0.904" style="stop-color:#3D065F"/>
				</linearGradient>
				<polygon class="st27" points="642.6,0 231.1,294.8 182.8,394 				"/>
				
					<linearGradient id="SVGID_6_" gradientUnits="userSpaceOnUse" x1="367.6561" y1="443.8929" x2="701.3072" y2="836.4149" gradientTransform="matrix(1 0 0 1 0 -377.888)">
					<stop  offset="1.000000e-02" style="stop-color:#9F19AB"/>
					<stop  offset="0.429" style="stop-color:#5F27BD"/>
					<stop  offset="0.904" style="stop-color:#3D065F"/>
				</linearGradient>
				<polygon class="st28" points="642.6,0 231.1,294.8 295.2,365.5 374,394.2 				"/>
				
					<linearGradient id="SVGID_7_" gradientUnits="userSpaceOnUse" x1="0" y1="503.83" x2="374.03" y2="503.83" gradientTransform="matrix(1 0 0 -1 0 800)">
					<stop  offset="0.422" style="stop-color:#1B0033"/>
					<stop  offset="0.986" style="stop-color:#1100FF"/>
				</linearGradient>
				<polygon class="st29" points="374,394.2 295.2,365.5 231.1,294.8 182.8,394 134.6,238.7 50,244.5 0,198.1 51.9,243.1 
					136.1,238.1 183.3,387.5 231.1,294.8 295.5,362.5 				"/>
				
					<linearGradient id="SVGID_8_" gradientUnits="userSpaceOnUse" x1="466.0499" y1="872.7286" x2="532.0599" y2="852.9686" gradientTransform="matrix(1 0 0 1 0 -377.888)">
					<stop  offset="4.000000e-02" style="stop-color:#FFA98C"/>
					<stop  offset="0.32" style="stop-color:#FFB892"/>
					<stop  offset="0.86" style="stop-color:#FEE1A3"/>
					<stop  offset="1" style="stop-color:#FEECA8"/>
				</linearGradient>
				<path class="st30" d="M494.9,496.2l-28.8-29.9c-1.8-1.8-3.8-2-4.5-0.4l-6.8,15.5c-0.7,1.6,0.1,4.4,1.9,6.3l28.8,29.9
					c1.8,1.8,3.8,2,4.5,0.4l6.8-15.5C497.5,500.8,496.7,498,494.9,496.2z"/>
				
					<linearGradient id="SVGID_9_" gradientUnits="userSpaceOnUse" x1="416.02" y1="883.2992" x2="536.54" y2="856.2892" gradientTransform="matrix(1 0 0 1 0 -377.888)">
					<stop  offset="4.000000e-02" style="stop-color:#FFA98C"/>
					<stop  offset="0.32" style="stop-color:#FFB892"/>
					<stop  offset="0.86" style="stop-color:#FEE1A3"/>
					<stop  offset="1" style="stop-color:#FEECA8"/>
				</linearGradient>
				<path class="st31" d="M494.1,496.5l-28.8-29.9c-1.8-1.8-3.8-2-4.5-0.4l-6.9,15.5c-0.7,1.6,0.1,4.4,1.9,6.3l28.8,29.9
					c1.8,1.8,3.8,2,4.5,0.4l6.8-15.5C496.7,501.1,495.8,498.3,494.1,496.5z"/>
				<path class="st32" d="M463.1,465.1L463.1,465.1l9.7,32l23,2c0,0,0-0.1,0-0.1l-22-4.1L463.1,465.1z"/>
				<g>
					<path class="st33" d="M479.3,497.7l7.6,21.3h0.1l-6.5-21.2L479.3,497.7z"/>
					<path class="st33" d="M469.5,486.4l-15.2-1.4c0,0,0,0.1,0,0.1l15.7,3L469.5,486.4z"/>
				</g>
				<path class="st34" d="M464.4,472c-1-0.3-1.7-1.1-1.9-2.1c-0.3-1.1,0.1-1.8,0.9-1.7c1,0.3,1.7,1.1,1.9,2.1
					C465.6,471.3,465.2,472.1,464.4,472z"/>
				<path class="st35" d="M464.2,470.9c-0.2,0-0.4-0.1-0.5-0.3l-29.8-44l1.1-0.7l29.2,43.2l29.2-43.2l1.1,0.7l-29.7,44
					C464.6,470.8,464.4,470.9,464.2,470.9z"/>
				<path class="st35" d="M464.2,470.9c-0.3,0-0.5-0.2-0.6-0.4l-14.5-44l1.2-0.4l13.9,42.1l13.9-42.1l1.2,0.4l-14.5,44
					C464.7,470.7,464.5,470.8,464.2,470.9z"/>
				
					<radialGradient id="SVGID_10_" cx="456.75" cy="762.218" r="62.98" gradientTransform="matrix(1 0 0 1 0 -377.888)" gradientUnits="userSpaceOnUse">
					<stop  offset="0" style="stop-color:#EEEBF2"/>
					<stop  offset="0.58" style="stop-color:#D4D1D8"/>
					<stop  offset="0.94" style="stop-color:#A5A6B9"/>
					<stop  offset="1" style="stop-color:#9D9EB3"/>
				</radialGradient>
				<path class="st36" d="M502.5,413.1c0-1.6-0.1-3.2-0.4-4.8c-0.2-1.8-0.5-3.6-0.9-5.4c-1.3-5.1-3.7-9.8-6.9-14
					c-11.3-12.7-30.3-8.9-30.3-8.9s-19-3.8-30.3,8.9c-3.2,4.2-5.5,8.9-6.9,14c-0.4,1.8-0.7,3.6-0.9,5.4c-0.3,1.6-0.4,3.2-0.4,4.8
					c0,4.4,1,9,7.1,11.8c7,5.2,18.4,8.5,31.3,8.5s24.4-3.4,31.3-8.5C501.2,422.5,502.5,417.5,502.5,413.1z"/>
				
					<radialGradient id="SVGID_11_" cx="456.75" cy="762.218" r="62.98" gradientTransform="matrix(1 0 0 1 0 -377.888)" gradientUnits="userSpaceOnUse">
					<stop  offset="0" style="stop-color:#EEEBF2"/>
					<stop  offset="0.58" style="stop-color:#D4D1D8"/>
					<stop  offset="0.94" style="stop-color:#A5A6B9"/>
					<stop  offset="1" style="stop-color:#9D9EB3"/>
				</radialGradient>
				<path class="st37" d="M451.9,432.3c5.2,4.6,19.1,4.8,24.4,0c-0.2-29.1-5.6-52.4-12.2-52.4S452,403.3,451.9,432.3z"/>
				
					<radialGradient id="SVGID_12_" cx="456.75" cy="762.218" r="62.98" gradientTransform="matrix(1 0 0 1 0 -377.888)" gradientUnits="userSpaceOnUse">
					<stop  offset="0" style="stop-color:#EEEBF2"/>
					<stop  offset="0.58" style="stop-color:#D4D1D8"/>
					<stop  offset="0.94" style="stop-color:#A5A6B9"/>
					<stop  offset="1" style="stop-color:#9D9EB3"/>
				</radialGradient>
				<path class="st38" d="M471.1,374.4c-4.7-0.9-9.4-0.9-14.1,0c2.5,1.6,4.8,3.5,7,5.5C466.2,377.9,468.6,376,471.1,374.4z"/>
				
					<radialGradient id="SVGID_13_" cx="460.55" cy="764.438" r="57.28" gradientTransform="matrix(1 0 0 1 0 -377.888)" gradientUnits="userSpaceOnUse">
					<stop  offset="0" style="stop-color:#2AF6FF"/>
					<stop  offset="1" style="stop-color:#138BBD"/>
				</radialGradient>
				<path class="st39" d="M464.1,379.9c-17,0-30.8,20-31.3,44.9c0,7.2,13.9,10.1,19.1,7.5C452,403.3,457.4,379.9,464.1,379.9z"/>
				
					<radialGradient id="SVGID_14_" cx="460.55" cy="764.438" r="57.28" gradientTransform="matrix(1 0 0 1 0 -377.888)" gradientUnits="userSpaceOnUse">
					<stop  offset="0" style="stop-color:#2AF6FF"/>
					<stop  offset="1" style="stop-color:#138BBD"/>
				</radialGradient>
				<path class="st40" d="M464.1,379.9c6.6,0,12,23.3,12.2,52.4c4.4,2.6,18.5-0.3,19.1-7.5C494.9,399.9,481,379.9,464.1,379.9z"/>
				
					<radialGradient id="SVGID_15_" cx="460.55" cy="764.438" r="57.28" gradientTransform="matrix(1 0 0 1 0 -377.888)" gradientUnits="userSpaceOnUse">
					<stop  offset="0" style="stop-color:#2AF6FF"/>
					<stop  offset="1" style="stop-color:#138BBD"/>
				</radialGradient>
				<path class="st41" d="M433.8,388.8c11.3-12.7,30.3-8.9,30.3-8.9c-2.2-2.1-4.5-3.9-7-5.5C447.8,376.2,439.5,381.3,433.8,388.8z"
					/>
				
					<radialGradient id="SVGID_16_" cx="460.55" cy="764.438" r="57.28" gradientTransform="matrix(1 0 0 1 0 -377.888)" gradientUnits="userSpaceOnUse">
					<stop  offset="0" style="stop-color:#2AF6FF"/>
					<stop  offset="1" style="stop-color:#138BBD"/>
				</radialGradient>
				<path class="st42" d="M494.3,388.8c-5.7-7.5-14-12.6-23.2-14.4c-2.5,1.6-4.8,3.5-7,5.5C464.1,379.9,483,376.2,494.3,388.8z"/>
				
					<linearGradient id="SVGID_17_" gradientUnits="userSpaceOnUse" x1="-3746.2158" y1="886.0399" x2="-3763.1658" y2="863.3299" gradientTransform="matrix(1 0 0 1 4251.3799 -377.888)">
					<stop  offset="4.000000e-02" style="stop-color:#1BB0D4"/>
					<stop  offset="0.2" style="stop-color:#1EBFDD"/>
					<stop  offset="0.53" style="stop-color:#27E8F6"/>
					<stop  offset="0.63" style="stop-color:#2AF6FF"/>
					<stop  offset="0.87" style="stop-color:#1BB0D4"/>
				</linearGradient>
				<path class="st43" d="M506.3,502.9c0,3-1,5.2-2.8,6.2l-3,1.8c-1.8,1-0.6-1.3-3.3-2.8c-5.4-3.1-9.8-10.7-9.8-16.9
					c0-3.1-2.8-3.1-1.1-4.1l3.3-1.9c1.8-1,4.2-0.8,6.8,0.8C502,489.1,506.3,496.7,506.3,502.9z"/>
				
					<linearGradient id="SVGID_18_" gradientUnits="userSpaceOnUse" x1="-3784.8276" y1="884.4277" x2="-3729.2976" y2="871.9777" gradientTransform="matrix(0.9999 4.329029e-04 -4.329029e-04 0.9999 4251.7666 -377.6328)">
					<stop  offset="4.000000e-02" style="stop-color:#138BBD"/>
					<stop  offset="0.23" style="stop-color:#169AC7"/>
					<stop  offset="0.59" style="stop-color:#1FC3DF"/>
					<stop  offset="1" style="stop-color:#2AF6FF"/>
				</linearGradient>
				<path class="st44" d="M486.4,487.2c3.8-2.2,10,1.3,13.9,7.9s3.9,13.7,0.1,16c-3.8,2.2-10-1.3-13.9-7.9
					C482.6,496.6,482.5,489.5,486.4,487.2z"/>
				<path class="st45" d="M490.8,504.4c-0.6-0.6-1.1-1.3-1.4-2.1c-0.3-0.6-0.5-1.2-0.5-1.9c0-0.1,0-0.2,0.1-0.2c0.1,0,0.2,0,0.2,0
					l1.4,0.8c0.2,0.1,0.4,0.4,0.5,0.6c0.3,1.1,1,1.9,2,2.4c0.4,0.3,1,0.4,1.5,0.4c0.4-0.1,0.5-0.5,0.5-1.1c0-0.6-0.2-1.1-0.5-1.6
					c-0.4-0.5-0.9-0.9-1.4-1.3l-1.6-0.9c-0.1-0.1-0.2-0.2-0.3-0.3c-0.1-0.1-0.1-0.2-0.1-0.4v-0.8c0-0.2,0.1-0.4,0.2-0.4l2.8-1.5
					l-4.4-2.5c-0.1-0.1-0.2-0.2-0.3-0.3c-0.1-0.1-0.1-0.2-0.1-0.4v-1.2c0-0.1,0-0.2,0.1-0.3c0.1,0,0.2,0,0.3,0l6.7,3.9
					c0.1,0.1,0.2,0.2,0.3,0.3c0.1,0.1,0.1,0.2,0.1,0.4v1.1c0,0.2-0.1,0.3-0.2,0.4l-2.7,1.6l0.2,0.1c1,0.6,1.8,1.4,2.4,2.4
					c0.6,0.9,0.9,2,0.9,3c0.1,0.6-0.1,1.3-0.5,1.7c-0.4,0.4-1,0.6-1.5,0.5c-0.8-0.1-1.5-0.4-2.2-0.8
					C492.3,505.7,491.5,505.1,490.8,504.4z"/>
				
					<linearGradient id="SVGID_19_" gradientUnits="userSpaceOnUse" x1="304.8128" y1="1026.3074" x2="370.8228" y2="1006.5374" gradientTransform="matrix(1 0 0 1 0 -377.888)">
					<stop  offset="4.000000e-02" style="stop-color:#FFA98C"/>
					<stop  offset="0.32" style="stop-color:#FFB892"/>
					<stop  offset="0.86" style="stop-color:#FEE1A3"/>
					<stop  offset="1" style="stop-color:#FEECA8"/>
				</linearGradient>
				<path class="st46" d="M333.7,649.8l-28.8-29.9c-1.8-1.8-3.8-2-4.5-0.4l-6.9,15.6c-0.7,1.6,0.1,4.4,1.9,6.2l28.8,29.9
					c1.8,1.8,3.8,2,4.5,0.4l6.9-15.6C336.3,654.4,335.4,651.6,333.7,649.8z"/>
				
					<linearGradient id="SVGID_20_" gradientUnits="userSpaceOnUse" x1="254.78" y1="1036.87" x2="375.29" y2="1009.85" gradientTransform="matrix(1 0 0 1 0 -377.888)">
					<stop  offset="4.000000e-02" style="stop-color:#FFA98C"/>
					<stop  offset="0.32" style="stop-color:#FFB892"/>
					<stop  offset="0.86" style="stop-color:#FEE1A3"/>
					<stop  offset="1" style="stop-color:#FEECA8"/>
				</linearGradient>
				<path class="st47" d="M332.8,650l-28.8-29.9c-1.8-1.8-3.8-2-4.5-0.4l-6.8,15.5c-0.7,1.6,0.1,4.4,1.9,6.2l28.8,29.9
					c1.8,1.8,3.8,2,4.5,0.4l6.8-15.5C335.4,654.7,334.6,651.9,332.8,650z"/>
				<path class="st32" d="M301.9,618.7L301.9,618.7l9.7,32l23,2v-0.1l-22-4.2L301.9,618.7z"/>
				<g>
					<path class="st33" d="M318.1,651.3l7.6,21.3h0.1l-6.5-21.2L318.1,651.3z"/>
					<path class="st33" d="M308.3,639.9l-15.2-1.4v0.1l15.7,3L308.3,639.9z"/>
				</g>
				<path class="st34" d="M303.2,625.5c-1-0.3-1.7-1.1-1.9-2.2c-0.3-1.1,0.1-1.8,0.9-1.7c1,0.3,1.7,1.1,1.9,2.2
					C304.4,624.9,304,625.6,303.2,625.5z"/>
				<path class="st35" d="M302.9,624.4c-0.2,0-0.4-0.1-0.5-0.3l-29.7-44l1.1-0.7l29.2,43.2l29.2-43.2l1,0.7l-29.7,44
					C303.4,624.3,303.2,624.4,302.9,624.4z"/>
				<path class="st35" d="M302.9,624.4c-0.3,0-0.5-0.2-0.6-0.4l-14.5-44l1.2-0.4l13.9,42.1l13.9-42.1l1.2,0.4l-14.5,44
					C303.5,624.2,303.2,624.4,302.9,624.4z"/>
				
					<radialGradient id="SVGID_21_" cx="294.58" cy="635.998" r="67.15" gradientTransform="matrix(1 0 0 -1 0 800)" gradientUnits="userSpaceOnUse">
					<stop  offset="0" style="stop-color:#EEEBF2"/>
					<stop  offset="0.58" style="stop-color:#D4D1D8"/>
					<stop  offset="0.94" style="stop-color:#A5A6B9"/>
					<stop  offset="1" style="stop-color:#9D9EB3"/>
				</radialGradient>
				<path class="st48" d="M341.2,566.6c0-1.6-0.1-3.2-0.4-4.8c-0.2-1.8-0.5-3.6-0.9-5.4c-1.3-5.1-3.7-9.8-6.8-14
					c-11.3-12.7-30.3-8.9-30.3-8.9s-19-3.8-30.2,8.9c-3.2,4.2-5.5,8.9-6.9,14c-0.4,1.8-0.7,3.6-0.9,5.4c-0.3,1.6-0.4,3.2-0.4,4.8
					c0,4.4,1,9,7.1,11.8c7,5.2,18.4,8.5,31.3,8.5s24.4-3.4,31.3-8.5C340,576.1,341.2,571,341.2,566.6z"/>
				
					<radialGradient id="SVGID_22_" cx="294.58" cy="635.998" r="67.15" gradientTransform="matrix(1 0 0 -1 0 800)" gradientUnits="userSpaceOnUse">
					<stop  offset="0" style="stop-color:#EEEBF2"/>
					<stop  offset="0.58" style="stop-color:#D4D1D8"/>
					<stop  offset="0.94" style="stop-color:#A5A6B9"/>
					<stop  offset="1" style="stop-color:#9D9EB3"/>
				</radialGradient>
				<path class="st49" d="M290.6,585.9c5.2,4.6,19.1,4.8,24.4,0c-0.2-29-5.6-52.4-12.2-52.4S290.8,556.8,290.6,585.9z"/>
				
					<radialGradient id="SVGID_23_" cx="294.58" cy="635.998" r="67.15" gradientTransform="matrix(1 0 0 -1 0 800)" gradientUnits="userSpaceOnUse">
					<stop  offset="0" style="stop-color:#EEEBF2"/>
					<stop  offset="0.58" style="stop-color:#D4D1D8"/>
					<stop  offset="0.94" style="stop-color:#A5A6B9"/>
					<stop  offset="1" style="stop-color:#9D9EB3"/>
				</radialGradient>
				<path class="st50" d="M309.9,528c-4.7-0.9-9.4-0.9-14.1,0c2.5,1.6,4.9,3.5,7,5.5C304.9,531.4,307.3,529.6,309.9,528z"/>
				
					<radialGradient id="SVGID_24_" cx="299.31" cy="917.998" r="57.28" gradientTransform="matrix(1 0 0 1 0 -377.888)" gradientUnits="userSpaceOnUse">
					<stop  offset="0" style="stop-color:#A56EF4"/>
					<stop  offset="1" style="stop-color:#6B24D6"/>
				</radialGradient>
				<path class="st51" d="M302.8,533.5c-17,0-30.8,20-31.3,44.9c0,7.2,13.9,10.1,19.1,7.5C290.8,556.8,296.2,533.5,302.8,533.5z"/>
				
					<radialGradient id="SVGID_25_" cx="299.31" cy="917.998" r="57.28" gradientTransform="matrix(1 0 0 1 0 -377.888)" gradientUnits="userSpaceOnUse">
					<stop  offset="0" style="stop-color:#A56EF4"/>
					<stop  offset="1" style="stop-color:#6B24D6"/>
				</radialGradient>
				<path class="st52" d="M302.8,533.5c6.6,0,12,23.3,12.2,52.4c4.4,2.6,18.6-0.3,19.1-7.5C333.6,553.5,319.8,533.5,302.8,533.5z"/>
				
					<radialGradient id="SVGID_26_" cx="299.31" cy="917.998" r="57.28" gradientTransform="matrix(1 0 0 1 0 -377.888)" gradientUnits="userSpaceOnUse">
					<stop  offset="0" style="stop-color:#A56EF4"/>
					<stop  offset="1" style="stop-color:#6B24D6"/>
				</radialGradient>
				<path class="st53" d="M272.6,542.4c11.3-12.7,30.2-8.9,30.2-8.9c-2.1-2.1-4.5-3.9-7-5.5C286.6,529.8,278.3,534.9,272.6,542.4z"
					/>
				
					<radialGradient id="SVGID_27_" cx="299.31" cy="917.998" r="57.28" gradientTransform="matrix(1 0 0 1 0 -377.888)" gradientUnits="userSpaceOnUse">
					<stop  offset="0" style="stop-color:#A56EF4"/>
					<stop  offset="1" style="stop-color:#6B24D6"/>
				</radialGradient>
				<path class="st54" d="M333.1,542.4c-5.7-7.5-14-12.6-23.2-14.4c-2.5,1.6-4.9,3.5-7,5.5C302.9,533.5,321.8,529.7,333.1,542.4z"/>
				
					<linearGradient id="SVGID_28_" gradientUnits="userSpaceOnUse" x1="-3907.457" y1="1039.594" x2="-3924.397" y2="1016.884" gradientTransform="matrix(1 0 0 1 4251.3799 -377.888)">
					<stop  offset="4.000000e-02" style="stop-color:#6B24D6"/>
					<stop  offset="0.2" style="stop-color:#7733DC"/>
					<stop  offset="0.5" style="stop-color:#975CED"/>
					<stop  offset="0.63" style="stop-color:#A56EF4"/>
					<stop  offset="0.87" style="stop-color:#6B24D6"/>
				</linearGradient>
				<path class="st55" d="M345.1,656.5c0,3-1,5.2-2.8,6.2l-3,1.8c-1.8,1-0.6-1.3-3.3-2.8c-5.4-3.1-9.8-10.7-9.8-16.9
					c0-3.1-2.8-3.1-1.1-4.1l3.3-1.9c1.8-1,4.2-0.8,6.8,0.8C340.8,642.7,345.1,650.3,345.1,656.5z"/>
				
					<linearGradient id="SVGID_29_" gradientUnits="userSpaceOnUse" x1="-3946.459" y1="1036.6907" x2="-3890.929" y2="1024.2397" gradientTransform="matrix(1 0 0 1 4251.3799 -377.888)">
					<stop  offset="4.000000e-02" style="stop-color:#6B24D6"/>
					<stop  offset="0.29" style="stop-color:#7733DC"/>
					<stop  offset="0.79" style="stop-color:#975CED"/>
					<stop  offset="1" style="stop-color:#A56EF4"/>
				</linearGradient>
				<path class="st56" d="M341.9,658.4c0,6.2-4.4,8.7-9.8,5.6s-9.8-10.7-9.8-16.9s4.4-8.7,9.8-5.6S341.9,652.2,341.9,658.4z"/>
				<path class="st45" d="M331.7,658.9c-0.1-0.1-0.1-0.2-0.1-0.4v-9.2l-2.3,0.7c-0.1,0-0.2,0-0.2,0c-0.1-0.1-0.2-0.2-0.3-0.3
					l-0.7-1.4c0-0.1-0.1-0.2-0.1-0.3c0-0.2,0-0.2,0.2-0.3l3.5-1.1c0.1,0,0.3,0,0.4,0.1l1.4,0.8c0.1,0.1,0.2,0.2,0.3,0.3
					c0.1,0.1,0.1,0.2,0.1,0.4v11.6c0,0.1,0,0.2-0.2,0.3c-0.1,0-0.2,0-0.2-0.1l-1.5-0.8C331.8,659.2,331.7,659.1,331.7,658.9z"/>
				
					<linearGradient id="SVGID_30_" gradientUnits="userSpaceOnUse" x1="139.7299" y1="948.2297" x2="205.7299" y2="928.4698" gradientTransform="matrix(1 0 0 1 0 -377.888)">
					<stop  offset="4.000000e-02" style="stop-color:#FFA98C"/>
					<stop  offset="0.32" style="stop-color:#FFB892"/>
					<stop  offset="0.86" style="stop-color:#FEE1A3"/>
					<stop  offset="1" style="stop-color:#FEECA8"/>
				</linearGradient>
				<path class="st57" d="M168.6,571.7l-28.8-29.9c-1.8-1.8-3.8-2-4.5-0.4l-6.9,15.5c-0.7,1.6,0.1,4.4,1.9,6.3l28.8,29.9
					c1.8,1.8,3.8,2,4.5,0.4l6.9-15.5C171.2,576.3,170.4,573.5,168.6,571.7z"/>
				
					<linearGradient id="SVGID_31_" gradientUnits="userSpaceOnUse" x1="89.7069" y1="958.8386" x2="210.2169" y2="931.8185" gradientTransform="matrix(1 0 0 1 0 -377.888)">
					<stop  offset="4.000000e-02" style="stop-color:#FFA98C"/>
					<stop  offset="0.32" style="stop-color:#FFB892"/>
					<stop  offset="0.86" style="stop-color:#FEE1A3"/>
					<stop  offset="1" style="stop-color:#FEECA8"/>
				</linearGradient>
				<path class="st58" d="M167.8,572L139,542.1c-1.8-1.8-3.8-2-4.5-0.4l-6.8,15.5c-0.7,1.6,0.2,4.4,1.9,6.3l28.8,29.9
					c1.8,1.8,3.8,2,4.5,0.4l6.9-15.5C170.4,576.6,169.5,573.8,167.8,572z"/>
				<path class="st32" d="M136.8,540.7L136.8,540.7l9.8,32l22.9,2v-0.1l-21.9-4.2L136.8,540.7z"/>
				<g>
					<path class="st33" d="M153,573.2l7.6,21.3h0.1l-6.5-21.2L153,573.2z"/>
					<path class="st33" d="M143.2,561.9l-15.2-1.4v0.1l15.7,3L143.2,561.9z"/>
				</g>
				<path class="st34" d="M138.1,547.5c-1-0.3-1.7-1.1-1.9-2.2c-0.3-1.1,0.1-1.8,0.9-1.7c1,0.3,1.7,1.1,1.9,2.2
					C139.3,546.8,138.9,547.6,138.1,547.5z"/>
				<path class="st35" d="M137.9,546.4c-0.2,0-0.4-0.1-0.5-0.3l-29.7-44l1.1-0.7l29.2,43.2l29.2-43.2l1.1,0.7l-29.7,44
					C138.3,546.3,138.1,546.4,137.9,546.4z"/>
				<path class="st35" d="M137.9,546.4c-0.3,0-0.5-0.2-0.6-0.4L122.8,502l1.2-0.4l13.9,42.1l13.9-42.1l1.2,0.4l-14.5,43.9
					C138.4,546.2,138.1,546.4,137.9,546.4z"/>
				
					<radialGradient id="SVGID_32_" cx="130.77" cy="558.358" r="63.23" gradientTransform="matrix(1 0 0 -1 0 800)" gradientUnits="userSpaceOnUse">
					<stop  offset="0" style="stop-color:#EEEBF2"/>
					<stop  offset="0.58" style="stop-color:#D4D1D8"/>
					<stop  offset="0.94" style="stop-color:#A5A6B9"/>
					<stop  offset="1" style="stop-color:#9D9EB3"/>
				</radialGradient>
				<path class="st59" d="M176.2,488.6c0-1.6-0.1-3.2-0.4-4.8c-0.2-1.8-0.5-3.6-0.9-5.4c-1.3-5.1-3.6-9.8-6.8-14
					c-11.2-12.7-30.2-8.9-30.2-8.9s-19-3.8-30.2,8.9c-3.2,4.2-5.5,8.9-6.9,14c-0.4,1.8-0.7,3.6-0.9,5.4c-0.3,1.6-0.4,3.2-0.4,4.8
					c0,4.4,1,9,7.1,11.8c7,5.2,18.4,8.5,31.3,8.5s24.4-3.4,31.3-8.5C174.9,498,176.2,493,176.2,488.6z"/>
				
					<radialGradient id="SVGID_33_" cx="130.77" cy="558.358" r="63.23" gradientTransform="matrix(1 0 0 -1 0 800)" gradientUnits="userSpaceOnUse">
					<stop  offset="0" style="stop-color:#EEEBF2"/>
					<stop  offset="0.58" style="stop-color:#D4D1D8"/>
					<stop  offset="0.94" style="stop-color:#A5A6B9"/>
					<stop  offset="1" style="stop-color:#9D9EB3"/>
				</radialGradient>
				<path class="st60" d="M125.5,507.8c5.2,4.6,19.1,4.8,24.4,0c-0.2-29-5.6-52.4-12.2-52.4S125.7,478.8,125.5,507.8z"/>
				
					<radialGradient id="SVGID_34_" cx="130.77" cy="558.358" r="63.23" gradientTransform="matrix(1 0 0 -1 0 800)" gradientUnits="userSpaceOnUse">
					<stop  offset="0" style="stop-color:#EEEBF2"/>
					<stop  offset="0.58" style="stop-color:#D4D1D8"/>
					<stop  offset="0.94" style="stop-color:#A5A6B9"/>
					<stop  offset="1" style="stop-color:#9D9EB3"/>
				</radialGradient>
				<path class="st61" d="M144.8,449.9c-4.7-0.9-9.4-0.9-14.1,0c2.5,1.6,4.9,3.5,7,5.5C139.9,453.4,142.2,451.5,144.8,449.9z"/>
				
					<radialGradient id="SVGID_35_" cx="134.22" cy="839.938" r="57.28" gradientTransform="matrix(1 0 0 1 0 -377.888)" gradientUnits="userSpaceOnUse">
					<stop  offset="0" style="stop-color:#FF63CE"/>
					<stop  offset="1" style="stop-color:#9F19AB"/>
				</radialGradient>
				<path class="st62" d="M137.8,455.4c-17,0-30.8,20-31.3,44.9c0,7.2,13.9,10.1,19.1,7.5C125.7,478.8,131.1,455.4,137.8,455.4z"/>
				
					<radialGradient id="SVGID_36_" cx="134.22" cy="839.938" r="57.28" gradientTransform="matrix(1 0 0 1 0 -377.888)" gradientUnits="userSpaceOnUse">
					<stop  offset="0" style="stop-color:#FF63CE"/>
					<stop  offset="1" style="stop-color:#9F19AB"/>
				</radialGradient>
				<path class="st63" d="M137.8,455.4c6.6,0,12,23.3,12.2,52.4c4.4,2.6,18.6-0.3,19.1-7.5C168.6,475.4,154.8,455.4,137.8,455.4z"/>
				
					<radialGradient id="SVGID_37_" cx="134.22" cy="839.938" r="57.28" gradientTransform="matrix(1 0 0 1 0 -377.888)" gradientUnits="userSpaceOnUse">
					<stop  offset="0" style="stop-color:#FF63CE"/>
					<stop  offset="1" style="stop-color:#9F19AB"/>
				</radialGradient>
				<path class="st64" d="M107.5,464.3c11.3-12.7,30.2-8.9,30.2-8.9c-2.1-2.1-4.5-3.9-7-5.5C121.5,451.7,113.2,456.8,107.5,464.3z"
					/>
				
					<radialGradient id="SVGID_38_" cx="134.22" cy="839.938" r="57.28" gradientTransform="matrix(1 0 0 1 0 -377.888)" gradientUnits="userSpaceOnUse">
					<stop  offset="0" style="stop-color:#FF63CE"/>
					<stop  offset="1" style="stop-color:#9F19AB"/>
				</radialGradient>
				<path class="st65" d="M168,464.4c-5.7-7.5-14-12.6-23.2-14.4c-2.5,1.6-4.9,3.5-7,5.5C137.8,455.4,156.8,451.7,168,464.4z"/>
				
					<linearGradient id="SVGID_39_" gradientUnits="userSpaceOnUse" x1="-4072.5432" y1="961.5383" x2="-4089.4932" y2="938.8282" gradientTransform="matrix(1 0 0 1 4251.3799 -377.888)">
					<stop  offset="4.000000e-02" style="stop-color:#9F19AB"/>
					<stop  offset="0.16" style="stop-color:#AE25B1"/>
					<stop  offset="0.41" style="stop-color:#D744BF"/>
					<stop  offset="0.63" style="stop-color:#FF63CE"/>
					<stop  offset="0.87" style="stop-color:#DC48C1"/>
				</linearGradient>
				<path class="st66" d="M180,578.4c0,3-1,5.2-2.8,6.2l-3,1.8c-1.8,1-0.6-1.3-3.3-2.8c-5.4-3.1-9.8-10.7-9.8-16.9
					c0-3.1-2.8-3.1-1.1-4.1l3.3-1.9c1.8-1,4.2-0.8,6.8,0.8C175.6,564.6,180,572.2,180,578.4z"/>
				
					<linearGradient id="SVGID_40_" gradientUnits="userSpaceOnUse" x1="-4111.1177" y1="960.0643" x2="-4055.5872" y2="947.6143" gradientTransform="matrix(0.9999 4.329029e-04 -4.329029e-04 0.9999 4251.7749 -377.6291)">
					<stop  offset="4.000000e-02" style="stop-color:#9F19AB"/>
					<stop  offset="0.24" style="stop-color:#AE25B1"/>
					<stop  offset="0.65" style="stop-color:#D744BF"/>
					<stop  offset="1" style="stop-color:#FF63CE"/>
				</linearGradient>
				<path class="st67" d="M160,562.7c3.8-2.2,10,1.3,13.9,7.9c3.9,6.6,3.9,13.7,0.1,16c-3.8,2.2-10-1.3-13.9-7.9
					S156.2,565,160,562.7z"/>
				<path class="st45" d="M163.3,578.5c-0.1-0.1-0.1-0.2-0.1-0.4v-0.9c0-0.3,0.1-0.5,0.4-0.6l2.4-1.4c0.6-0.2,1.1-0.4,1.7-0.7
					c0.3-0.2,0.6-0.4,0.9-0.7c0.2-0.2,0.3-0.6,0.3-0.9c0-0.5-0.1-1.1-0.4-1.5c-0.3-0.5-0.7-0.9-1.2-1.2c-0.5-0.3-0.9-0.4-1.2-0.2
					c-0.3,0.2-0.5,0.6-0.6,1c0,0.1-0.1,0.2-0.2,0.2c0,0,0,0,0,0c-0.1,0-0.2,0-0.3-0.1l-1.4-0.8c-0.1-0.1-0.2-0.1-0.2-0.2
					c-0.1-0.1-0.1-0.2-0.1-0.3c0-0.6,0.2-1.2,0.5-1.7c0.3-0.4,0.8-0.7,1.4-0.7c0.7,0,1.5,0.2,2.1,0.6c0.8,0.5,1.5,1,2.1,1.7
					c0.6,0.6,1,1.3,1.3,2.1c0.3,0.7,0.4,1.4,0.4,2.2c0,0.7-0.2,1.3-0.6,1.8c-0.5,0.5-1.1,0.8-1.8,1l-2.1,1.3l4.4,2.5
					c0.1,0.1,0.2,0.2,0.3,0.3c0.1,0.1,0.1,0.3,0.1,0.4v1.3c0,0.1,0,0.2-0.1,0.3c-0.1,0-0.2,0-0.3,0l-7.4-4.3
					C163.4,578.8,163.3,578.7,163.3,578.5z"/>
			</g>
		</g>
	</g>
</g>
</svg>
